<?xml version="1.0" encoding="UTF-8"?>
<svg id="Layer_1" data-name="Layer 1" xmlns="http://www.w3.org/2000/svg" viewBox="0 0 683.78 132.24">
  <defs>
    <style>
      .cls-1 {
        fill: #3147ff;
      }

      .cls-1, .cls-2, .cls-3 {
        stroke-width: 0px;
      }

      .cls-2 {
        fill: #262b33;
      }

      .cls-3 {
        fill: #44484f;
      }
    </style>
  </defs>
  <polygon class="cls-2" points="132.24 66.12 66.12 132.24 56.19 122.31 54.17 131.5 54.16 131.5 54.16 81.01 80.38 81.01 80.38 74.19 54.16 74.19 54.16 53.82 85.75 53.82 85.75 47 54.16 47 54.16 .93 56.15 9.97 66.12 0 132.24 66.12"/>
  <polygon class="cls-1" points="47.35 .93 47.35 131.5 42.27 108.39 0 66.12 42.33 23.79 47.35 .93"/>
  <g>
    <path class="cls-2" d="M195.49,118.51h-51.56V39.06h15.51v65.62h36.04v13.84Z"/>
    <path class="cls-2" d="M253.26,93.96h-36.38c0,3.87,1.13,6.99,3.4,9.37,2.27,2.38,5.37,3.57,9.32,3.57,5.13,0,9.52-1.82,13.17-5.47l8.82,8.59c-3.2,3.2-6.32,5.47-9.37,6.81-3.5,1.56-7.74,2.34-12.72,2.34-17.93,0-26.89-9.93-26.89-29.79,0-9.3,2.34-16.63,7.03-21.98,4.54-5.13,10.64-7.7,18.3-7.7s14.13,2.64,18.75,7.92c4.39,5.06,6.58,11.68,6.58,19.86v6.47ZM238.97,84.03c-.08-2.38-.52-4.46-1.34-6.25-1.78-4.02-5.02-6.03-9.71-6.03s-7.92,2.01-9.71,6.03c-.82,1.79-1.27,3.87-1.34,6.25h22.1Z"/>
    <path class="cls-2" d="M309.24,118.51h-14.17v-5.02c-3.72,3.72-8.48,5.58-14.28,5.58-6.55,0-11.46-1.67-14.73-5.02-3.27-3.35-4.91-7.74-4.91-13.17,0-4.91,1.69-8.94,5.06-12.11,3.37-3.16,8.29-4.74,14.74-4.74h13.68v-2.9c0-6.1-3.6-9.15-10.79-9.15-4.67,0-8.38,1.6-11.12,4.8l-9.23-9.04c2.75-3.05,5.76-5.17,9.04-6.36,2.97-1.12,6.96-1.67,11.94-1.67,16.52,0,24.77,6.85,24.77,20.53v38.28ZM294.62,97.09v-3.13h-11.43c-5.4,0-8.1,2.2-8.1,6.58s2.77,6.7,8.32,6.7c4.96,0,8.25-1.23,9.87-3.68.89-1.34,1.33-3.5,1.33-6.47Z"/>
    <path class="cls-2" d="M365.22,118.51h-14.17v-5.47c-3.65,4.09-8.44,6.14-14.39,6.14s-10.79-1.75-14.28-5.25c-2.6-2.6-4.32-6.32-5.13-11.16-.52-2.97-.78-7.44-.78-13.39s.26-10.3.78-13.28c.82-4.84,2.52-8.55,5.12-11.16,3.48-3.5,8.19-5.25,14.13-5.25s10.64,1.94,14.13,5.8v-26.45h14.62v79.45ZM350.6,89.39c0-5.51-.55-9.45-1.65-11.83-1.47-3.2-4.19-4.8-8.16-4.8-4.19,0-7.02,1.86-8.5,5.58-.81,2.23-1.21,5.92-1.21,11.05s.4,8.82,1.21,11.05c1.47,3.79,4.3,5.69,8.5,5.69,3.97,0,6.69-1.6,8.16-4.8,1.1-2.45,1.65-6.43,1.65-11.94Z"/>
    <path class="cls-2" d="M422.28,100.21c0,6.18-2.38,10.94-7.14,14.28-4.46,3.13-10.31,4.69-17.52,4.69-5.43,0-9.86-.49-13.28-1.45-4.32-1.26-8.15-3.57-11.49-6.92l9.49-9.49c3.64,3.65,8.82,5.47,15.51,5.47s10.27-2.01,10.27-6.03c0-3.2-2.05-4.98-6.14-5.36l-9.15-.89c-11.31-1.12-16.96-6.55-16.96-16.29,0-5.8,2.27-10.41,6.81-13.84,4.17-3.13,9.37-4.69,15.62-4.69,9.97,0,17.37,2.27,22.21,6.81l-8.93,9.04c-2.9-2.6-7.4-3.91-13.5-3.91-5.51,0-8.26,1.86-8.26,5.58,0,2.98,2.01,4.65,6.03,5.02l9.15.89c11.53,1.12,17.3,6.81,17.3,17.07Z"/>
  </g>
  <g>
    <path class="cls-3" d="M443.7,74.11h34.38v7.67h-34.38v36.71h-8.48V38.33h48.67v7.67h-40.19v28.11Z"/>
    <path class="cls-3" d="M487.61,96.88v-37.29h7.9v36.24c0,5.42,1.05,9.49,3.14,12.2,2.09,2.71,5.61,4.07,10.57,4.07s8.48-1.32,10.57-3.95c2.09-2.63,3.14-6.74,3.14-12.31v-36.24h7.9v37.29c0,7.2-1.8,12.72-5.4,16.55-3.6,3.83-9.04,5.75-16.32,5.75s-12.49-1.92-16.09-5.75c-3.6-3.83-5.4-9.35-5.4-16.55Z"/>
    <path class="cls-3" d="M546.74,59.59v7.2c1.7-2.63,3.93-4.61,6.68-5.92,2.75-1.32,5.83-1.98,9.23-1.98,6.27,0,11.09,1.84,14.46,5.52,3.37,3.68,5.05,8.81,5.05,15.39v38.68h-7.9v-37.52c0-4.88-1.2-8.6-3.6-11.15-2.4-2.55-5.73-3.83-9.99-3.83s-7.53,1.3-10.05,3.89c-2.52,2.6-3.78,6.29-3.78,11.09v37.52h-7.9v-58.89h7.78Z"/>
    <path class="cls-3" d="M589.99,95.02v-12.08c0-8.29,1.86-14.38,5.58-18.29,3.72-3.91,8.52-5.87,14.4-5.87,7.12,0,12.39,3.02,15.8,9.06v-29.51h8.02v80.15h-8.02v-7.78c-1.55,2.79-3.66,4.9-6.33,6.33-2.67,1.43-5.87,2.15-9.58,2.15-5.81,0-10.57-1.96-14.29-5.87-3.72-3.91-5.58-10.01-5.58-18.3ZM625.77,94.44v-10.34c0-5.5-1.2-9.89-3.6-13.18-2.4-3.29-5.96-4.94-10.69-4.94-8.98,0-13.47,5.81-13.47,17.42v11.15c0,11.69,4.34,17.54,13.01,17.54,4.88,0,8.56-1.63,11.04-4.88,2.48-3.25,3.72-7.51,3.72-12.78Z"/>
    <path class="cls-3" d="M683.78,78.41v40.08h-7.78v-6.27c-1.78,2.4-3.99,4.16-6.62,5.29-2.63,1.12-5.85,1.69-9.64,1.69-6.19,0-11-1.47-14.4-4.42-3.41-2.94-5.11-7.24-5.11-12.89,0-5.27,1.72-9.39,5.17-12.37,3.45-2.98,8.31-4.47,14.58-4.47h15.91v-6.74c0-4.26-1.16-7.47-3.49-9.64-2.32-2.17-5.61-3.25-9.87-3.25-4.03,0-7.18.91-9.47,2.73-2.29,1.82-3.43,4.32-3.43,7.49v.35h-7.67v-.58c0-5.03,1.82-9.06,5.46-12.08,3.64-3.02,8.63-4.53,14.99-4.53,6.89,0,12.18,1.67,15.86,5,3.68,3.33,5.52,8.21,5.52,14.64ZM675.88,98.5v-7.67h-14.75c-8.67,0-13.01,3.64-13.01,10.92s4.3,11.04,12.89,11.04c5.19,0,8.96-1.18,11.33-3.54,2.36-2.36,3.54-5.94,3.54-10.75Z"/>
  </g>
</svg>